<svg version="1.2" xmlns="http://www.w3.org/2000/svg" viewBox="0 0 278 99" width="278" height="99">
	<title>logo-gbp-svg</title>
	<style>
		.s0 { fill: #2c0b07 } 
		.s1 { fill: #ef6110 } 
	</style>
	<g id="Layer">
		<path id="Layer" class="s0" d="m57.6 80.5h-4c-2 0-3.4-1.3-3.4-3.3 0-1.9 1.4-3.3 3.4-3.3h3.7v1.4h-3.7c-1 0-1.7 0.8-1.7 2 0 1.1 0.7 2 1.7 2h2.4v-2.1h1.6c0 0 0 3.3 0 3.3z"/>
		<path id="Layer" fill-rule="evenodd" class="s0" d="m65.2 78.7l1.9 1.8h-2l-1.8-1.7h-2.5v1.7h-1.6v-6.6h4.5c1.9 0 3.1 0.9 3.1 2.4 0 1.1-0.6 2-1.6 2.4zm-1.5-1.2q1.5 0 1.5-1.1 0-1.1-1.5-1.1h-2.9v2.2z"/>
		<path id="Layer" fill-rule="evenodd" class="s0" d="m73.5 79h-3.7l-0.9 1.5h-1.7l3.7-6.2c0.1-0.2 0.5-0.5 0.8-0.5 0.2 0 0.6 0.1 0.7 0.5l3.8 6.2h-1.9zm-0.8-1.2l-1.1-2-1.1 2z"/>
		<path id="Layer" class="s0" d="m82.9 73.9h1.6v5.9c0 0.5-0.4 0.9-0.9 0.9-0.2 0-0.5-0.2-0.6-0.3l-4.4-4.2v4.3h-1.6v-5.8c0-0.5 0.4-0.9 0.9-0.9 0.2 0 0.5 0.1 0.6 0.3l4.4 4.2z"/>
		<path id="Layer" fill-rule="evenodd" class="s0" d="m93.9 77.3c0 1.9-1.4 3.2-3.4 3.2h-4.3v-6.6h4.3c1.9 0 3.4 1.4 3.4 3.4zm-1.8 0c0-1.1-0.7-2-1.7-2h-2.7v4h2.7c1-0.1 1.7-0.9 1.7-2z"/>
		<path id="Layer" class="s0" d="m95.1 73.9h1.6v6.6h-1.6z"/>
		<path id="Layer" fill-rule="evenodd" class="s0" d="m104.4 78.7l1.9 1.8h-2.1l-1.6-1.7h-2.5v1.7h-1.6v-6.6h4.4c1.9 0 3.2 0.9 3.2 2.4-0.2 1.1-0.7 2-1.7 2.4zm-1.6-1.2q1.5 0 1.5-1.1 0-1.1-1.5-1.1h-2.7v2.2z"/>
		<path id="Layer" class="s0" d="m107.2 79.8c0-0.5 0.4-0.8 0.9-0.8h0.3c0.5 0 0.9 0.3 0.9 0.8 0 0.5-0.4 0.7-0.9 0.7h-0.3c-0.5 0-0.9-0.3-0.9-0.7z"/>
		<path id="Layer" class="s0" d="m115.2 76.6h4.4v1.2h-4.4v1.4h5.1v1.3h-6.8v-6.6h6.8v1.4h-5.1z"/>
		<path id="Layer" class="s0" d="m127.4 73.9h1.6v5.9c0 0.5-0.4 0.9-0.9 0.9-0.2 0-0.5-0.2-0.6-0.3l-4.4-4.2v4.3h-1.6v-5.8c0-0.5 0.4-0.9 0.9-0.9 0.2 0 0.5 0.1 0.6 0.3l4.4 4.2z"/>
		<path id="Layer" class="s0" d="m135 79.2c0.7 0 1.1-0.3 1.1-0.7 0-0.5-0.4-0.6-1.1-0.6h-2c-1.8 0-2.6-0.7-2.6-1.8 0-1.3 1-2 2.7-2h4.2v1.3h-4.2c-0.7 0-1.1 0.3-1.1 0.7 0 0.3 0.4 0.6 1.1 0.6h2c1.7 0 2.6 0.6 2.6 2 0 1.3-1 2.1-2.9 2.1h-4.4v-1.4h4.6z"/>
		<path id="Layer" class="s0" d="m140.7 76.6h4.5v1.2h-4.5v1.4h5v1.3h-6.7v-6.6h6.7v1.4h-5z"/>
		<path id="Layer" class="s0" d="m147.1 74.6c0-0.5 0.3-0.8 0.8-0.8q0.6 0 0.8 0.4l3 4 3-4q0.3-0.4 0.7-0.4c0.5 0 0.8 0.4 0.8 0.8v5.9h-1.7v-3.9l-2.2 2.9c-0.1 0.3-0.4 0.4-0.6 0.4-0.3 0-0.5-0.1-0.7-0.4l-2.2-2.9v3.9h-1.6z"/>
		<path id="Layer" fill-rule="evenodd" class="s0" d="m165.4 78.7c0 1.1-1 2-2.5 2h-5v-6.6h4.9c1.5 0 2.3 0.7 2.3 1.8 0 0.7-0.2 1-0.7 1.4 0.6 0.1 1 0.6 1 1.4zm-5.9-2.1h3.1c0.7 0 0.9-0.3 0.9-0.7 0-0.5-0.2-0.6-0.9-0.6h-3.1zm4.3 2c0-0.5-0.3-0.7-1-0.7h-3.3v1.4h3.3c0.6-0.1 1-0.2 1-0.7z"/>
		<path id="Layer" class="s0" d="m173.1 79.2v1.3h-6.5v-6.6h1.6v5.3z"/>
		<path id="Layer" class="s0" d="m176.1 76.6h4.5v1.2h-4.5v1.4h5.1v1.3h-6.7v-6.6h6.7v1.4h-5.1z"/>
		<path id="Layer" class="s0" d="m182.6 79.8c0-0.5 0.3-0.8 0.8-0.8h0.4c0.5 0 0.9 0.3 0.9 0.8 0 0.5-0.4 0.7-0.9 0.7h-0.4c-0.5 0-0.8-0.3-0.8-0.7z"/>
		<path id="Layer" fill-rule="evenodd" class="s1" d="m74 41.9c0 2.9-2.3 4.9-6.3 4.9h-12.5v-16.4h12.1c3.7 0 6 1.8 6 4.5 0 1.5-0.6 2.6-1.8 3.4 1.8 0.6 2.5 1.9 2.5 3.6zm-14.5-5.2h7.7c1.5 0 2.1-0.5 2.1-1.6 0-1.2-0.6-1.5-2.1-1.5h-7.7zm10.4 4.8c0-1.2-0.7-1.7-2.3-1.7h-8.1v3.6h8.1c1.6 0 2.3-0.6 2.3-1.9z"/>
		<path id="Layer" fill-rule="evenodd" class="s1" d="m90.2 43h-9.1l-2 3.6h-4.6l9.3-15.5c0.3-0.7 1.1-1.2 1.8-1.2 0.8 0 1.5 0.5 1.9 1.2l9.2 15.5h-4.5zm-1.8-3.2l-2.8-4.9-2.7 4.9z"/>
		<path id="Layer" class="s1" d="m113.4 30.3h4v14.6c0 1.2-0.9 2-2.1 2-0.6 0-1.3-0.3-1.6-0.6l-10.8-10.5v10.8h-3.9v-14.5c0-1.3 0.8-2.2 2.1-2.2 0.6 0 1.2 0.3 1.6 0.7l10.7 10.3c0 0 0-10.6 0-10.6z"/>
		<path id="Layer" fill-rule="evenodd" class="s1" d="m138.1 46.6l-1-0.7q-1.7 0.7-3.7 0.7h-4.4c-4.9 0-8.5-3.4-8.5-8.3 0-4.7 3.4-8.1 8.5-8.1h4.4c4.9 0 8.3 3.4 8.3 8.1 0 2.2-0.7 4.2-2.1 5.7l3.1 2.6zm-4.1-3.2l-3.3-2.6h4.9l1.1 1c0.7-0.9 1-2 1-3.3 0-2.8-1.7-4.8-4.2-4.8h-4.4c-2.5 0-4.2 1.9-4.2 4.8 0 2.9 1.7 5 4.2 5h4.4c0.1-0.1 0.4-0.1 0.5-0.1z"/>
		<path id="Layer" class="s1" d="m164 30.3v9.2c0 4.9-3.4 7.4-9.6 7.4-6.2 0-9.6-2.6-9.6-7.4v-9.2h4v8.9c0 3.1 1.6 4.3 5.6 4.3 4 0 5.6-1.2 5.6-4.3v-8.9z"/>
		<path id="Layer" class="s1" d="m172 36.7h11.1v3.2h-11.1v3.5h12.6v3.2h-16.7v-16.3h16.7v3.3h-12.6z"/>
		<path id="Layer" fill-rule="evenodd" class="s1" d="m24.6 57c0 3.7-2.9 5.8-7.8 5.8h-6.7v4.7h-4.1v-16.4h10.8c5 0 7.8 2.1 7.8 5.9zm-4.1 0c0-1.8-1.2-2.6-3.7-2.6h-6.6v5.2h6.6c2.4 0 3.7-0.9 3.7-2.6z"/>
		<path id="Layer" fill-rule="evenodd" class="s1" d="m48.1 59.1c0 4.9-3.5 8.4-8.3 8.4h-4.4c-4.9 0-8.5-3.5-8.5-8.4 0-4.7 3.4-8.1 8.5-8.1h4.4c5 0.1 8.3 3.4 8.3 8.1zm-4.1 0c0-2.9-1.7-4.9-4.2-4.9h-4.4c-2.5 0-4.2 1.9-4.2 4.9 0 2.9 1.7 5 4.2 5h4.4c2.5 0.1 4.2-2.1 4.2-5z"/>
		<path id="Layer" fill-rule="evenodd" class="s1" d="m69.9 57c0 3.7-2.8 5.8-7.7 5.8h-6.7v4.7h-4.1v-16.4h10.8c4.9 0 7.7 2.1 7.7 5.9zm-4.2 0c0-1.8-1.1-2.6-3.6-2.6h-6.6v5.2h6.6c2.5 0 3.6-0.9 3.6-2.6z"/>
		<path id="Layer" class="s1" d="m92.1 51v9.2c0 4.9-3.4 7.4-9.6 7.4-6.2 0-9.6-2.6-9.6-7.4v-9.2h4v8.9c0 3.1 1.6 4.3 5.6 4.3 4 0 5.6-1.2 5.6-4.3v-8.9z"/>
		<path id="Layer" class="s1" d="m112 64.2v3.3h-16v-16.4h4.1v13.1z"/>
		<path id="Layer" fill-rule="evenodd" class="s1" d="m129.2 63.8h-9.1l-2 3.7h-4.4l9.2-15.6c0.4-0.6 1.1-1.1 1.9-1.1 0.7 0 1.4 0.5 1.8 1.1l9.2 15.6h-4.4zm-1.9-3.3l-2.8-4.8-2.7 4.8z"/>
		<path id="Layer" class="s1" d="m137.8 51.1h4.2v16.4h-4.2z"/>
		<path id="Layer" fill-rule="evenodd" class="s1" d="m160.9 62.7l4.7 4.8h-5.2l-4.1-4.3h-6.2v4.3h-4.2v-16.4h11.3c4.7 0 7.6 2.3 7.6 6 0 2.6-1.4 4.7-3.9 5.6zm-3.9-2.7c2.5 0 3.6-0.9 3.6-2.9 0-1.9-1.1-2.9-3.6-2.9h-6.8v5.8z"/>
		<path id="Layer" class="s1" d="m172 57.5h11.1v3.2h-11.1v3.5h12.6v3.3h-16.7v-16.4h16.7v3.3h-12.6z"/>
		<path id="Layer" fill-rule="evenodd" class="s1" d="m236.2 85.5c-20.1 0-36.3-16.2-36.3-36.2 0-20.1 16.2-36.3 36.3-36.3 20 0 36.2 16.2 36.2 36.3 0 20-16.2 36.2-36.2 36.2zm33.6-36.2c0-18.6-15-33.7-33.6-33.7-18.6 0-33.7 15.1-33.7 33.7 0 18.6 15.1 33.6 33.7 33.6 18.6 0 33.6-15 33.6-33.6z"/>
		<path id="Layer" fill-rule="evenodd" class="s0" d="m256.8 33.2c-0.1 0.1-0.2 0.4-0.2 0.5h-0.1c-0.2 0-0.8-0.1-1-0.1-0.2 0-0.2 0.3 0 0.3 0.1 0 0.6 0.2 0.8 0.2v0.1c0 0.1-0.1 0.4-0.2 0.5 0 0.1-0.1 0.1-0.1 0.1l-0.4 0.1c-0.3 0.2-0.5 0.3-0.6 0.3q-0.2 0-0.4 0c-0.1-0.1-0.4-0.4-0.5-0.5h-1.9c-0.7 0.1-1.5 0.7-2.5 0.5 0 0-0.3 2.5 2.7 8.6 1.2 2.7 2.1 6 0.6 8.8-0.3 0.5-0.6 1-1 1.4-0.1 0.1-0.3 0.2-0.3 0.2 0.5 0.5 1.9 2.3 3.4 3.3 0 0.1 0.4 0.5 0.4 0.5 0 0.1 0.1 0.2 0.1 0.5 0 0.5-0.1 1-0.1 1.4l-0.2 0.2c-1.9 2.1-2.1 2.2-2.8 3.2-0.1 0.2-0.3 0.5-0.6 1-0.3 0.5-0.7 1.2-0.8 1.4-0.2 0.3-0.5 0.3-0.6 0.3-1.1 0.2-1.1 0.8-1.8 1-0.3 0.1-1 0.1-1.5 0.2-0.1 0-0.1-0.1-0.1-0.2l1.1-2.2c0.2-0.1 0.2-0.1 0.3-0.1 0.4 0.1 0.7 0.3 1 0.4 0.1 0 0.2 0 0.2-0.3 0-0.2-0.1-0.3-0.1-0.7 0-0.3 0.1-0.4 0.3-0.5 1.5-1.3 2.2-2 3.6-3.6 0 0 0.1-0.1 0.1-0.3 0-0.3 0-0.6 0-0.6 0-0.1-0.1-0.2-0.1-0.2-1.8-0.8-3.5-1.4-6-2.5-0.3-0.2-0.4-0.2-0.5-0.3-0.6-0.2-1.1-0.7-1.5-1.1-0.5-0.4-0.7-0.9-1-1.5-0.2-0.4-0.2-0.9-0.4-1.2 0-0.3-0.1-0.3-0.1 0 0 0.3 0.1 1.1 0.3 1.4q0.3 1.2 1.1 1.9c0.1 0.1 0.4 0.3 0.5 0.4-0.1 0.1-0.4 0.1-0.5 0.1q-0.4 0-0.8 0c-7.7 0-9.7-1.5-9.7-1.5-0.1-0.2-0.6-1.8-1.2-2.2-0.2-0.1-0.2 0-0.2 0 0.3 0.4 0.7 1 0.8 1.7 0.1 0.8-0.1 2.1-0.5 2.9-0.6 1.2-1.5 2.4-3.3 3.6-0.1 0.1-0.2 0.3-0.4 0.4-0.7 0.5-1 0.7-1.5 1-0.2 0-0.2 0-0.2 0 0 0 0 0 0 0.1q0.1 0.1 0.2 0.3-0.2 0.1-0.4 0.2 0.3 0.2 0.6 0.4c0.5 1.1 1.4 2.8 2.6 4.2 0 0.1 0.1 0.5 0.1 0.6-0.1 0.3-0.1 0.4 0 0.7 0.3 0.6 1 0.7 1.3 0.8 0.2 0.3 0.5 0.6 1 1.5 0 0 0 0.1-0.1 0.1h-2.5c-0.2 0-0.2-0.1-0.2-0.1 0-0.1-0.1-0.4-0.1-0.7 0-0.2 0-0.2 0-0.2 0.1-0.2 0.1-1.2-1.1-1.4-0.1-0.2-0.4-0.2-0.4-0.3-1.2-3.6-1.8-4.1-2.7-5.1-0.4-0.4-1.1-1-1.5-1.4-0.1 0-0.1 0-0.1-0.1 0-0.4 0-0.6 0.1-0.9-0.1 0-0.1 0-0.3 0-0.5 0-0.7-0.1-1.1-0.1-0.1 0-0.2-0.1-0.2-0.2 0-0.4-0.2-0.8-0.2-0.9-0.1 0 0-0.1 0-0.1 0.4-0.2 1.7-1.3 2.4-3.8 0.5 0.5 1.1 0.9 1.5 1.1q0.2 0.2 0.4 0.4c0.1 0.1 0.1 0.1 0.1 0.1 0.3 0.3 0.5 0.5 0.5 0.7 0 0.2 0 0.3-0.1 0.5-0.5 0.7-1.1 0.8-1.5 1 0 0 0 0.1 0.2 0.2l0.3 0.1c0.6-0.5 1.2-1 1.6-1.6 0.1-0.2 0-0.5-0.9-1.2-0.3-0.3-0.8-0.8-1.6-1.4-0.5-0.5-1-1-1.4-1.5-1.1-1.4-1.8-3.2-1.6-5.1 0.1-0.8 0.4-1.5 0.8-2.1 1-1.5 1.1-2.5-1.3-2.6-0.2 0-2.7-0.3-5.6 0.9 0.9-0.9 2.3-1.4 3.1-1.6-4.3 0.2-7.7 2.1-9.8 0.5 1.7 0.2 2.9-0.2 3.1-0.3-0.2 0-4.7 0.3-5.7-2 1.8 1 3.2 0.8 3.7 0.8-0.7-0.1-3.1-1-3.7-3.6 0.2 0.5 2.3 3 6.7 2.3-0.7 0-1.9-0.3-2.1-1.3 1.6 1 3.3 0.4 5.1 0.3-0.6-0.2-0.8-0.3-1-0.4 0.4-0.1 1.2-0.4 1.5-0.4 0.5 0 1-0.1 1.5-0.1 1.2-0.1 2.6 0.1 3.7 0.6 1.3 0.6 2.5 1.5 2.8 2.9q0.1 0.9 0 1.9c0 0.3 0 0.4 0.2 0.3 0.5-0.2 1-0.3 1.6-0.5 0.9-0.1 2.2-0.1 3 0 3.1 0.6 7.1 0.6 9.7-0.1 0.8-0.2 1-0.7 0.3-1-0.9-0.2-2-1-2.3-1.5 0.8 0.1 2.4 0 3-0.4-1.3 0.2-2.8-0.8-3.2-1.7 0.9 0.4 2.9 0.5 3.1-0.3-0.7 0.2-2.4-0.2-2.7-1 0.5 0 2.1-0.2 2.3-0.5-0.2-0.1-1.5-0.1-1.7-0.5 0.6 0 2-0.2 2.1-0.5-0.7 0-2.1-0.3-2.5-1.1 0.9 0.3 1.9-0.3 2.6-0.5-0.5-0.1-1.6-0.7-1.8-1.2 1.3 0.1 1.8-0.4 3.1-0.6-0.8 0-1.1-0.5-2.3-0.4 1-0.5 1.4-1.3 3-1.3-0.6-0.1-1.6-0.6-1.8-0.8 1.1 0 2.1-0.2 2.6-0.5-0.3-0.3-1.1-0.5-1.8-0.4 0.9-0.8 2.3-0.9 3.4-0.6-0.1-0.4-0.9-0.6-1.2-0.8 1.1-0.5 2.4 0.3 2.8 0.5 0.5-1.3 1-1.6 1.4-2.5 0.2 0.9 0.4 1.8 0.1 2.5 0.8 0.1 1.1-0.5 0.9-1.1 0.4 0 0.6 0.4 0.7 0.6 0-0.1 0.2-0.6-0.2-0.8 0.5 0.1 1 0.6 0.9 1.3 0.1 0 0.2-0.1 0.2-0.3 0.5 0.8 0 1.4-0.2 1.7 0 0 0.8 0.7 2.7 1.5 0.4 0.1 0.7 0.1 1.1 0.1 0.1 0 0.3 0.1 0.4 0.1 0.1 0 0.1 0.2 0.2 0.5 0 0.2 0 0.2 0.3 0.4-0.1 0 0 0 0 0 0.1 0.1 0.1 0.3 0.7-0.1zm-8.4 24.9c-0.7 0.9-1.9 2.5-2 3 0 0.1 0 0.4-0.2 0.7-0.1 0.4-0.2 0.8-0.8 1.3-0.4 0.4-2.3 3.7-2.4 5 0 0.2 0 0.6 0.3 1 0.2 0.2 0.5 0.6 1.3 1 0.3 0.5 0.4 0.6 0.9 1.3 0.1 0.2 0 0.3-0.1 0.3h-2.3l-0.1-0.1c-0.1-0.4-0.2-0.8-0.2-0.9 0 0 0-0.3 0-0.4-0.2-0.6-0.8-0.9-1-0.9 0-0.1-0.3-0.1-0.4-0.1l-0.1-0.1c-0.2-0.2-0.3-0.5-0.3-0.6-0.1-0.1 0-0.3 0-0.4 1.6-4.4 2.4-5.6 2.4-6.2 0-0.9 0.1-1.4 0.6-2 0.3-0.9 0.5-1.6 0.9-2.5 0.1-0.4 0.5-0.5 0.7-0.6 0.9 0.3 1.6 0.3 2.8 1.2zm-13.9 8.1c0.2 0.3 0.3 0.6 0.4 2 0.1 0.1 0 0.1-0.1 0.1l-2.1-1.1c-0.2 0-0.2-0.1-0.2-0.1 0-0.3-0.1-0.5-0.1-0.9v-0.1c0.4-0.4 0.4-0.9 0-1.1-0.2-0.2-0.6-0.2-0.9 0-0.2 0-0.3 0-0.5-0.2q-1.1-1.1-2.2-1.8-0.1-0.4-0.2-0.6c0.4-0.2 0.8-0.5 1.2-0.7 1.5 0.9 2.6 1.6 3.7 2.5 0.3 0.3 0.3 0.9 0.4 1.1 0.1 0.5 0.5 0.8 0.6 0.9zm16.5-34.5c0 0-0.1-0.6-0.6-0.6-0.4 0-0.7 0.1-0.9 0.3 0.4 0.4 0.5 0.5 0.9 0.5q-0.4-0.1-0.4-0.3c0 0 0-0.2 0.4-0.2 0.1 0.2 0.6 0.3 0.6 0.3z"/>
	</g>
</svg>